<svg xmlns="http://www.w3.org/2000/svg" xmlns:cc="http://web.resource.org/cc/" xmlns:svg="http://www.w3.org/2000/svg" xmlns:xlink="http://www.w3.org/1999/xlink" id="svg3527" width="32" height="32" version="1.0"><defs id="defs3529"><linearGradient id="linearGradient5301"><stop style="stop-color:white;stop-opacity:1" id="stop5303" offset="0"/><stop style="stop-color:white;stop-opacity:0" id="stop5305" offset="1"/></linearGradient><linearGradient id="linearGradient8927" x1="19.029" x2="46.345" y1="3.067" y2="39.187" gradientTransform="matrix(0.7922976,0,0,0.7407728,-9.076892,-1.0372928)" gradientUnits="userSpaceOnUse" xlink:href="#linearGradient5301"/><linearGradient id="linearGradient4410"><stop style="stop-color:#eeeeec;stop-opacity:1" id="stop4412" offset="0"/><stop style="stop-color:#babdb6;stop-opacity:1" id="stop4414" offset="1"/></linearGradient><linearGradient id="linearGradient8930" x1="22.804" x2="34.594" y1="10.039" y2="40.877" gradientTransform="matrix(0.6168278,0,0,0.7230555,-5.8238424,-3.9942653)" gradientUnits="userSpaceOnUse" xlink:href="#linearGradient4410"/><linearGradient id="linearGradient2296"><stop style="stop-color:white;stop-opacity:1" id="stop2298" offset="0"/><stop style="stop-color:white;stop-opacity:0" id="stop2300" offset="1"/></linearGradient><linearGradient id="linearGradient5449" x1="48" x2="78" y1="18.534" y2="18.534" gradientTransform="matrix(0.969324,0.303467,-0.313034,0.999884,-26.51354,-28.87764)" gradientUnits="userSpaceOnUse" xlink:href="#linearGradient2296"/></defs><metadata id="metadata3532"/><g id="layer1"><g style="stroke-width:1.14714873;stroke-miterlimit:4;stroke-dasharray:none" id="g3042" transform="matrix(0.6676717,-0.1652421,0.1767355,0.6242515,-4.5144704,8.6143774)"><path style="opacity:.51648356;fill:url(#linearGradient5449);fill-opacity:1;fill-rule:evenodd;stroke:none;stroke-width:1.14714873;stroke-linecap:butt;stroke-linejoin:miter;stroke-miterlimit:4;stroke-dasharray:none;stroke-opacity:1" id="path3055" d="M 11.249051,13.68551 C 22.267512,21.50188 31.322859,13.953532 40.328776,22.789518 L 45.504535,4.7780871 L 44.31062,2.2533867 L 19.506897,-5.5996203 L 16.789787,-4.2944189 L 11.249051,13.68551 z"/></g><rect style="fill:url(#linearGradient8930);fill-opacity:1;fill-rule:nonzero;stroke:#333331;stroke-width:.76610261;stroke-linecap:round;stroke-linejoin:miter;stroke-miterlimit:4;stroke-dasharray:none;stroke-dashoffset:0;stroke-opacity:1" id="rect7756" width="21.428" height="25.205" x="5.556" y="1.554" rx="2.401" ry="2.095" transform="matrix(0.9999996,8.8300066e-4,-1.0101078e-3,0.9999995,0,0)"/><rect style="fill:none;fill-opacity:1;fill-rule:nonzero;stroke:url(#linearGradient8927);stroke-width:.76610249;stroke-linecap:round;stroke-linejoin:miter;stroke-miterlimit:4;stroke-dasharray:none;stroke-dashoffset:0;stroke-opacity:1" id="rect7758" width="19.766" height="23.624" x="6.42" y="2.313" rx="1.771" ry="1.44" transform="matrix(0.9999996,8.5306907e-4,-1.0433156e-3,0.9999995,0,0)"/><path style="fill:#c00;fill-opacity:1;fill-rule:evenodd;stroke:none;stroke-width:1;stroke-linecap:butt;stroke-linejoin:miter;stroke-miterlimit:4;stroke-dasharray:none;stroke-opacity:1" id="path920" d="M 16.613093,11.004484 C 18.825384,8.8586791 21.850012,10.851232 21.82364,12.892287 C 21.799535,14.75817 20.339408,15.647544 16.667788,18.95582 C 12.84538,15.857089 11.497427,15.141147 11.52434,12.927339 C 11.551495,10.635704 14.151604,8.9233418 16.613093,11.004484 z"/><path style="font-size:13.97632694px;font-style:normal;font-weight:400;fill:#c00;fill-opacity:1;stroke:none;stroke-width:1px;stroke-linecap:butt;stroke-linejoin:miter;stroke-opacity:1;font-family:Bitstream Vera Sans" id="text9323" d="M 12.316242,8.5849955 L 11.133675,8.5849955 L 10.790998,7.4314783 L 9.0776202,7.4314783 L 8.7383031,8.5849955 L 7.5624564,8.5849955 L 9.3161468,3.3995907 L 10.602864,3.3995907 L 12.316242,8.5849955 M 10.542392,6.5347 L 10.02502,4.7917664 C 9.9869412,4.6615911 9.9600614,4.5061019 9.9443892,4.3252991 L 9.9175094,4.3252991 C 9.9063103,4.4771719 9.8783172,4.6278412 9.8335188,4.7773005 L 9.309427,6.5347 L 10.542392,6.5347"/><path style="font-size:13.97632694px;font-style:normal;font-weight:400;fill:#c00;fill-opacity:1;stroke:none;stroke-width:1px;stroke-linecap:butt;stroke-linejoin:miter;stroke-opacity:1;font-family:Bitstream Vera Sans" id="path4380" d="M 24.993003,19.696592 L 23.810436,19.696592 L 23.467759,20.850109 L 21.754381,20.850109 L 21.415064,19.696592 L 20.239217,19.696592 L 21.992913,24.881997 L 23.279624,24.881997 L 24.993003,19.696592 M 23.219152,21.746887 L 22.701781,23.489821 C 22.663702,23.619996 22.636828,23.775485 22.62115,23.956295 L 22.59427,23.956295 C 22.583071,23.804415 22.555078,23.653746 22.510286,23.504287 L 21.986194,21.746887 L 23.219152,21.746887"/><path style="fill:#fff;fill-opacity:1;fill-rule:evenodd;stroke:#275897;stroke-width:.99189425px;stroke-linecap:butt;stroke-linejoin:miter;stroke-opacity:1" id="path3471" d="M 8.9445854,22.270574 L 3.9900164,26.247806 L 3.9900164,23.706793 L 1.2649993,23.596316 L 1.2649993,31.219341 L 9.5639065,31.108863 L 9.5639065,28.346896 L 6.8388894,28.236418 L 11.050275,24.259186 L 8.9445854,22.270574 z"/><path style="fill:#fff;fill-opacity:1;fill-rule:evenodd;stroke:#275897;stroke-width:.97069794px;stroke-linecap:butt;stroke-linejoin:miter;stroke-opacity:1" id="path3493" d="M 22.283226,23.459572 L 26.143575,28.348319 L 23.677238,28.348319 L 23.570006,31.037128 L 30.969013,31.037128 L 30.861783,22.848478 L 28.180985,22.848478 L 28.073747,25.537287 L 24.213398,21.381848 L 22.283226,23.459572 z"/></g></svg>