<svg xmlns="http://www.w3.org/2000/svg" xmlns:svg="http://www.w3.org/2000/svg" xmlns:xlink="http://www.w3.org/1999/xlink" id="svg1291" width="48" height="48" version="1.0"><defs id="defs3"><radialGradient id="radialGradient9289" cx="605.714" cy="486.648" r="117.143" fx="605.714" fy="486.648" gradientTransform="matrix(-2.774389,0,0,1.969706,112.7623,-872.8854)" gradientUnits="userSpaceOnUse" xlink:href="#linearGradient5060"/><linearGradient id="linearGradient5060"><stop style="stop-color:black;stop-opacity:1" id="stop5062" offset="0"/><stop style="stop-color:black;stop-opacity:0" id="stop5064" offset="1"/></linearGradient><radialGradient id="radialGradient9287" cx="605.714" cy="486.648" r="117.143" fx="605.714" fy="486.648" gradientTransform="matrix(2.774389,0,0,1.969706,-1891.633,-872.8854)" gradientUnits="userSpaceOnUse" xlink:href="#linearGradient5060"/><linearGradient id="linearGradient5048"><stop style="stop-color:black;stop-opacity:0" id="stop5050" offset="0"/><stop style="stop-color:black;stop-opacity:1" id="stop5056" offset=".5"/><stop style="stop-color:black;stop-opacity:0" id="stop5052" offset="1"/></linearGradient><linearGradient id="linearGradient9285" x1="302.857" x2="302.857" y1="366.648" y2="609.505" gradientTransform="matrix(2.774389,0,0,1.969706,-1892.179,-872.8854)" gradientUnits="userSpaceOnUse" xlink:href="#linearGradient5048"/><linearGradient id="linearGradient4339"><stop style="stop-color:white;stop-opacity:1" id="stop4341" offset="0"/><stop style="stop-color:white;stop-opacity:0" id="stop4343" offset="1"/></linearGradient><linearGradient id="linearGradient4331"><stop style="stop-color:white;stop-opacity:1" id="stop4333" offset="0"/><stop style="stop-color:white;stop-opacity:0" id="stop4335" offset="1"/></linearGradient><linearGradient id="linearGradient4323"><stop style="stop-color:white;stop-opacity:1" id="stop4325" offset="0"/><stop style="stop-color:white;stop-opacity:0" id="stop4327" offset="1"/></linearGradient><linearGradient id="linearGradient4302"><stop style="stop-color:#eeeeec;stop-opacity:1" id="stop4304" offset="0"/><stop style="stop-color:#babdb6;stop-opacity:1" id="stop4306" offset="1"/></linearGradient><linearGradient id="linearGradient4276"><stop style="stop-color:#eeeeec;stop-opacity:1" id="stop4278" offset="0"/><stop style="stop-color:#babdb6;stop-opacity:1" id="stop4280" offset="1"/></linearGradient><linearGradient id="linearGradient4270"><stop style="stop-color:#eeeeec;stop-opacity:1" id="stop4272" offset="0"/><stop style="stop-color:#babdb6;stop-opacity:1" id="stop4274" offset="1"/></linearGradient><linearGradient id="linearGradient4616"><stop style="stop-color:#888a85;stop-opacity:1" id="stop4618" offset="0"/><stop style="stop-color:#888a85;stop-opacity:0" id="stop4620" offset="1"/></linearGradient><linearGradient id="linearGradient4608"><stop style="stop-color:#c00;stop-opacity:1" id="stop4610" offset="0"/><stop style="stop-color:#c00;stop-opacity:0" id="stop4612" offset="1"/></linearGradient><linearGradient id="linearGradient3116"><stop style="stop-color:#e5e5e5;stop-opacity:1" id="stop3118" offset="0"/><stop style="stop-color:#dfdfdf;stop-opacity:1" id="stop3120" offset="1"/></linearGradient><linearGradient id="linearGradient2296"><stop style="stop-color:white;stop-opacity:1" id="stop2298" offset="0"/><stop style="stop-color:white;stop-opacity:0" id="stop2300" offset="1"/></linearGradient><linearGradient id="linearGradient5460"><stop style="stop-color:#e5e5e5;stop-opacity:1" id="stop5462" offset="0"/><stop style="stop-color:#c8c8c8;stop-opacity:1" id="stop5464" offset="1"/></linearGradient><linearGradient id="linearGradient2621" x1="48" x2="78" y1="18.534" y2="18.534" gradientTransform="matrix(0.969324,0.303467,-0.313034,0.999884,-26.51354,-28.87764)" gradientUnits="userSpaceOnUse" xlink:href="#linearGradient2296"/><linearGradient id="linearGradient2623" x1="35.321" x2="51.861" y1="24.984" y2="41.37" gradientTransform="matrix(0.893089,0,0,1.11971,0.123711,-12.57232)" gradientUnits="userSpaceOnUse" xlink:href="#linearGradient5460"/><linearGradient id="linearGradient2625" x1="34.562" x2="50.809" y1="17.249" y2="44.77" gradientTransform="matrix(0.882464,0,0,1.123232,0.12316,-12.49411)" gradientUnits="userSpaceOnUse" xlink:href="#linearGradient3116"/><linearGradient id="linearGradient2801" x1="48" x2="78" y1="18.534" y2="18.534" gradientTransform="matrix(0.969324,0.303467,-0.313034,0.999884,-26.51354,-28.87764)" gradientUnits="userSpaceOnUse" xlink:href="#linearGradient2296"/><linearGradient id="linearGradient2803" x1="35.321" x2="51.861" y1="24.984" y2="41.37" gradientTransform="matrix(0.77853,0,0,0.976082,-34.18008,38.21868)" gradientUnits="userSpaceOnUse" xlink:href="#linearGradient5460"/><linearGradient id="linearGradient2805" x1="34.562" x2="50.809" y1="17.249" y2="44.77" gradientTransform="matrix(0.769267,0,0,0.979152,-34.17903,38.28576)" gradientUnits="userSpaceOnUse" xlink:href="#linearGradient3116"/><linearGradient id="linearGradient2807" x1="54.287" x2="68.843" y1="9.114" y2="38.118" gradientTransform="matrix(0.885319,-1.391498e-2,1.435341e-2,0.913231,-61.16223,40.07142)" gradientUnits="userSpaceOnUse" xlink:href="#linearGradient2296"/><linearGradient id="linearGradient2833" x1="48" x2="78" y1="18.534" y2="18.534" gradientTransform="matrix(0.969324,0.303467,-0.313034,0.999884,-26.51354,-28.87764)" gradientUnits="userSpaceOnUse" xlink:href="#linearGradient2296"/><linearGradient id="linearGradient2845" x1="54.287" x2="68.843" y1="9.114" y2="38.118" gradientTransform="matrix(0.885319,-1.391498e-2,1.435341e-2,0.913231,7.627955,-2.556956)" gradientUnits="userSpaceOnUse" xlink:href="#linearGradient2296"/><linearGradient id="linearGradient2851" x1="34.562" x2="50.809" y1="17.249" y2="44.77" gradientTransform="matrix(0.769267,0,0,0.979152,34.56951,-4.405328)" gradientUnits="userSpaceOnUse" xlink:href="#linearGradient3116"/><linearGradient id="linearGradient2854" x1="35.321" x2="51.861" y1="24.984" y2="41.37" gradientTransform="matrix(0.77853,0,0,0.976082,34.56978,-4.474615)" gradientUnits="userSpaceOnUse" xlink:href="#linearGradient5460"/><linearGradient id="linearGradient4614" x1=".648" x2="-9.802" y1="51.625" y2="51.809" gradientTransform="translate(68.28909,-42.23192)" gradientUnits="userSpaceOnUse" xlink:href="#linearGradient4608"/><linearGradient id="linearGradient4622" x1="1.888" x2="-10.255" y1="60.857" y2="61.351" gradientTransform="translate(68.28909,-42.23192)" gradientUnits="userSpaceOnUse" xlink:href="#linearGradient4616"/><linearGradient id="linearGradient4687" x1="48" x2="78" y1="18.534" y2="18.534" gradientTransform="matrix(0.969324,0.303467,-0.313034,0.999884,-26.51354,-28.87764)" gradientUnits="userSpaceOnUse" xlink:href="#linearGradient2296"/><linearGradient id="linearGradient2841" x1="54.287" x2="68.843" y1="9.114" y2="38.118" gradientTransform="matrix(0.885319,-1.382536e-2,1.435341e-2,0.907349,-38.23217,1.795337)" gradientUnits="userSpaceOnUse" xlink:href="#linearGradient2296"/><linearGradient id="linearGradient2850" x1="23.51" x2="35.569" y1="8.781" y2="41.259" gradientTransform="matrix(0.77853,0,0,0.976082,-11.28625,-0.122311)" gradientUnits="userSpaceOnUse" xlink:href="#linearGradient4276"/><linearGradient id="linearGradient4255" x1="54.287" x2="68.843" y1="9.114" y2="38.118" gradientTransform="matrix(0.924705,-1.373574e-2,1.499197e-2,0.901468,-25.1915,5.839845)" gradientUnits="userSpaceOnUse" xlink:href="#linearGradient2296"/><linearGradient id="linearGradient4264" x1="23.666" x2="51.861" y1="9.276" y2="41.37" gradientTransform="matrix(0.77853,7.352587e-4,-9.218306e-4,0.976082,3.641539,3.868233)" gradientUnits="userSpaceOnUse" xlink:href="#linearGradient4270"/><linearGradient id="linearGradient4283" x1=".648" x2="-9.802" y1="51.625" y2="51.809" gradientTransform="translate(31.66245,-42.35086)" gradientUnits="userSpaceOnUse" xlink:href="#linearGradient4608"/><linearGradient id="linearGradient4285" x1="1.888" x2="-10.255" y1="60.857" y2="61.351" gradientTransform="translate(31.66245,-42.35086)" gradientUnits="userSpaceOnUse" xlink:href="#linearGradient4616"/><linearGradient id="linearGradient4290" x1="54.287" x2="68.843" y1="9.114" y2="38.118" gradientTransform="matrix(0.885319,-1.391498e-2,1.435341e-2,0.913231,-28.99858,-2.710849)" gradientUnits="userSpaceOnUse" xlink:href="#linearGradient2296"/><linearGradient id="linearGradient4295" x1="34.562" x2="50.809" y1="17.249" y2="44.77" gradientTransform="matrix(0.769267,0,0,0.979152,-2.057148,-4.525805)" gradientUnits="userSpaceOnUse" xlink:href="#linearGradient3116"/><linearGradient id="linearGradient4298" x1="24.285" x2="32.156" y1="7.914" y2="41.385" gradientTransform="matrix(0.77853,0,0,0.976082,-2.056874,-4.593919)" gradientUnits="userSpaceOnUse" xlink:href="#linearGradient4302"/><linearGradient id="linearGradient4329" x1="18.99" x2="38.974" y1="10.15" y2="45.669" gradientUnits="userSpaceOnUse" xlink:href="#linearGradient4323"/><linearGradient id="linearGradient4337" x1="6.731" x2="21.751" y1="7.946" y2="45.393" gradientUnits="userSpaceOnUse" xlink:href="#linearGradient4331"/><linearGradient id="linearGradient4345" x1="18.291" x2="26.742" y1="1.63" y2="35.711" gradientUnits="userSpaceOnUse" xlink:href="#linearGradient4339"/><linearGradient id="linearGradient4373" x1="302.857" x2="302.857" y1="366.648" y2="609.505" gradientTransform="matrix(2.774389,0,0,1.969706,-1892.179,-872.8854)" gradientUnits="userSpaceOnUse" xlink:href="#linearGradient5048"/><radialGradient id="radialGradient4375" cx="605.714" cy="486.648" r="117.143" fx="605.714" fy="486.648" gradientTransform="matrix(2.774389,0,0,1.969706,-1891.633,-872.8854)" gradientUnits="userSpaceOnUse" xlink:href="#linearGradient5060"/><radialGradient id="radialGradient4377" cx="605.714" cy="486.648" r="117.143" fx="605.714" fy="486.648" gradientTransform="matrix(-2.774389,0,0,1.969706,112.7623,-872.8854)" gradientUnits="userSpaceOnUse" xlink:href="#linearGradient5060"/></defs><g id="layer1"><g style="display:inline" id="g9277" transform="matrix(1.273888e-2,0,0,1.472845e-2,28.2418,39.20747)"><rect style="opacity:.40206185;color:#000;fill:url(#linearGradient9285);fill-opacity:1;fill-rule:nonzero;stroke:none;stroke-width:1;stroke-linecap:round;stroke-linejoin:miter;marker:none;marker-start:none;marker-mid:none;marker-end:none;stroke-miterlimit:4;stroke-dasharray:none;stroke-dashoffset:0;stroke-opacity:1;visibility:visible;display:inline;overflow:visible" id="rect9279" width="1339.633" height="478.357" x="-1559.252" y="-150.697"/><path style="opacity:.40206185;color:#000;fill:url(#radialGradient9287);fill-opacity:1;fill-rule:nonzero;stroke:none;stroke-width:1;stroke-linecap:round;stroke-linejoin:miter;marker:none;marker-start:none;marker-mid:none;marker-end:none;stroke-miterlimit:4;stroke-dasharray:none;stroke-dashoffset:0;stroke-opacity:1;visibility:visible;display:inline;overflow:visible" id="path9281" d="M -219.61876,-150.68038 C -219.61876,-150.68038 -219.61876,327.65041 -219.61876,327.65041 C -76.744594,328.55086 125.78146,220.48075 125.78138,88.454235 C 125.78138,-43.572302 -33.655436,-150.68036 -219.61876,-150.68038 z"/><path style="opacity:.40206185;color:#000;fill:url(#radialGradient9289);fill-opacity:1;fill-rule:nonzero;stroke:none;stroke-width:1;stroke-linecap:round;stroke-linejoin:miter;marker:none;marker-start:none;marker-mid:none;marker-end:none;stroke-miterlimit:4;stroke-dasharray:none;stroke-dashoffset:0;stroke-opacity:1;visibility:visible;display:inline;overflow:visible" id="path9283" d="M -1559.2523,-150.68038 C -1559.2523,-150.68038 -1559.2523,327.65041 -1559.2523,327.65041 C -1702.1265,328.55086 -1904.6525,220.48075 -1904.6525,88.454235 C -1904.6525,-43.572302 -1745.2157,-150.68036 -1559.2523,-150.68038 z"/></g><g style="display:inline" id="g4365" transform="matrix(1.375025e-2,0,0,1.472845e-2,44.05962,43.07294)"><rect style="opacity:.40206185;color:#000;fill:url(#linearGradient4373);fill-opacity:1;fill-rule:nonzero;stroke:none;stroke-width:1;stroke-linecap:round;stroke-linejoin:miter;marker:none;marker-start:none;marker-mid:none;marker-end:none;stroke-miterlimit:4;stroke-dasharray:none;stroke-dashoffset:0;stroke-opacity:1;visibility:visible;display:inline;overflow:visible" id="rect4367" width="1339.633" height="478.357" x="-1559.252" y="-150.697"/><path style="opacity:.40206185;color:#000;fill:url(#radialGradient4375);fill-opacity:1;fill-rule:nonzero;stroke:none;stroke-width:1;stroke-linecap:round;stroke-linejoin:miter;marker:none;marker-start:none;marker-mid:none;marker-end:none;stroke-miterlimit:4;stroke-dasharray:none;stroke-dashoffset:0;stroke-opacity:1;visibility:visible;display:inline;overflow:visible" id="path4369" d="M -219.61876,-150.68038 C -219.61876,-150.68038 -219.61876,327.65041 -219.61876,327.65041 C -76.744594,328.55086 125.78146,220.48075 125.78138,88.454235 C 125.78138,-43.572302 -33.655436,-150.68036 -219.61876,-150.68038 z"/><path style="opacity:.40206185;color:#000;fill:url(#radialGradient4377);fill-opacity:1;fill-rule:nonzero;stroke:none;stroke-width:1;stroke-linecap:round;stroke-linejoin:miter;marker:none;marker-start:none;marker-mid:none;marker-end:none;stroke-miterlimit:4;stroke-dasharray:none;stroke-dashoffset:0;stroke-opacity:1;visibility:visible;display:inline;overflow:visible" id="path4371" d="M -1559.2523,-150.68038 C -1559.2523,-150.68038 -1559.2523,327.65041 -1559.2523,327.65041 C -1702.1265,328.55086 -1904.6525,220.48075 -1904.6525,88.454235 C -1904.6525,-43.572302 -1745.2157,-150.68036 -1559.2523,-150.68038 z"/></g><g id="g2811" transform="matrix(0.842703,-0.223067,0.223067,0.842703,-0.40499,12.43198)"><path style="opacity:.51648356;fill:url(#linearGradient4687);fill-opacity:1;fill-rule:evenodd;stroke:none;stroke-width:.25pt;stroke-linecap:butt;stroke-linejoin:miter;stroke-opacity:1" id="path2813" d="M 11.249051,13.68551 C 22.267512,21.50188 31.322859,13.953532 40.328776,22.789518 L 45.504535,4.7780871 L 44.31062,2.2533867 L 19.506897,-5.5996203 L 16.789787,-4.2944189 L 11.249051,13.68551 z"/></g><rect style="fill:url(#linearGradient4298);fill-opacity:1;fill-rule:nonzero;stroke:#888a85;stroke-width:.99999994;stroke-linecap:round;stroke-linejoin:miter;stroke-miterlimit:4;stroke-dasharray:none;stroke-dashoffset:0;stroke-opacity:1" id="rect2815" width="27.211" height="36.086" x="12.373" y="2.45" rx="3.03" ry="2.828" transform="matrix(1,9.44418e-4,-9.44418e-4,1,0,0)"/><rect style="fill:url(#linearGradient4295);fill-opacity:1;fill-rule:nonzero;stroke:url(#linearGradient4345);stroke-width:.99999994;stroke-linecap:round;stroke-linejoin:miter;stroke-miterlimit:4;stroke-dasharray:none;stroke-dashoffset:0;stroke-opacity:1" id="rect2817" width="25.054" height="32.609" x="13.373" y="3.45" rx="2.235" ry="1.945" transform="matrix(1,9.124042e-4,-9.75466e-4,1,0,0)"/><text style="font-size:8.71726513px;font-style:normal;font-variant:normal;font-weight:700;font-stretch:normal;text-align:start;line-height:125%;writing-mode:lr-tb;text-anchor:start;fill:#c00;fill-opacity:1;stroke:none;stroke-width:1px;stroke-linecap:butt;stroke-linejoin:miter;stroke-opacity:1;font-family:Sans" id="text2819" x="14.565" y="11.858" transform="matrix(0.999995,3.172875e-3,-3.172875e-3,0.999995,0,0)" xml:space="preserve"><tspan style="font-size:8.71726513px;font-style:normal;font-variant:normal;font-weight:700;font-stretch:normal;text-align:start;line-height:125%;writing-mode:lr-tb;text-anchor:start;fill:#c00;fill-opacity:1;font-family:Sans" id="tspan2821" x="14.565" y="11.858">K</tspan></text><path style="opacity:.51648356;fill:url(#linearGradient4290);fill-opacity:1;fill-rule:evenodd;stroke:none;stroke-width:.25pt;stroke-linecap:butt;stroke-linejoin:miter;stroke-opacity:1" id="path2825" d="M 13.596285,21.952893 C 24.854117,25.409198 27.982511,16.417511 37.853382,21.268174 L 37.820539,5.7395718 C 37.827113,4.8610848 37.416851,4.2764948 36.146224,4.2940178 L 15.310518,4.0101008 C 14.114375,4.0079078 13.370288,5.0492498 13.418483,5.8335338 L 13.596285,21.952893 z"/><text style="font-size:8.7172718px;font-style:normal;font-variant:normal;font-weight:700;font-stretch:normal;text-align:start;line-height:125%;writing-mode:lr-tb;text-anchor:start;fill:#c00;fill-opacity:1;stroke:none;stroke-width:1px;stroke-linecap:butt;stroke-linejoin:miter;stroke-opacity:1;font-family:Sans" id="text2827" x="-36.727" y="-27.868" transform="matrix(-0.999995,-3.172875e-3,3.172875e-3,-0.999995,0,0)" xml:space="preserve"><tspan style="font-size:8.7172718px;font-style:normal;font-variant:normal;font-weight:700;font-stretch:normal;text-align:start;line-height:125%;writing-mode:lr-tb;text-anchor:start;fill:#c00;fill-opacity:1;font-family:Sans" id="tspan2829" x="-36.727" y="-27.868">K</tspan></text><rect style="fill:url(#linearGradient4283);fill-opacity:1;fill-rule:nonzero;stroke:url(#linearGradient4285);stroke-width:1.00000083;stroke-linecap:round;stroke-linejoin:miter;stroke-miterlimit:4;stroke-dasharray:none;stroke-dashoffset:0;stroke-opacity:1" id="rect2858" width="20.559" height="26.228" x="16.048" y="8.026" rx="3.03" ry="2.828" transform="matrix(1,9.547326e-4,-9.342116e-4,1,0,0)"/><g style="stroke-width:1.43393588;stroke-miterlimit:4;stroke-dasharray:none" id="g2745" transform="matrix(0.842703,-0.223067,0.223067,0.842703,-9.63857,16.89488)"><path style="opacity:.51648356;fill:url(#linearGradient2801);fill-opacity:1;fill-rule:evenodd;stroke:none;stroke-width:1.43393588;stroke-linecap:butt;stroke-linejoin:miter;stroke-miterlimit:4;stroke-dasharray:none;stroke-opacity:1" id="path2747" d="M 11.249051,13.68551 C 22.267512,21.50188 31.322859,13.953532 40.328776,22.789518 L 45.504535,4.7780871 L 44.31062,2.2533867 L 19.506897,-5.5996203 L 16.789787,-4.2944189 L 11.249051,13.68551 z"/></g><rect style="fill:url(#linearGradient2850);fill-opacity:1;fill-rule:nonzero;stroke:#888a85;stroke-width:.99999952;stroke-linecap:round;stroke-linejoin:miter;stroke-miterlimit:4;stroke-dasharray:none;stroke-dashoffset:0;stroke-opacity:1" id="rect2749" width="26.916" height="33.983" x="3.597" y="7.516" rx="3.03" ry="2.828" transform="matrix(1,9.444184e-4,-9.444184e-4,1,0,0)"/><rect style="fill:none;fill-opacity:1;fill-rule:nonzero;stroke:url(#linearGradient4337);stroke-width:.99999952;stroke-linecap:round;stroke-linejoin:miter;stroke-miterlimit:4;stroke-dasharray:none;stroke-dashoffset:0;stroke-opacity:1" id="rect2751" width="24.976" height="32.084" x="4.59" y="8.446" rx="2.235" ry="1.945" transform="matrix(1,9.124046e-4,-9.754665e-4,1,0,0)"/><text style="font-size:11.01079941px;font-style:normal;font-weight:400;fill:#c00;fill-opacity:1;stroke:none;stroke-width:1px;stroke-linecap:butt;stroke-linejoin:miter;stroke-opacity:1;font-family:Bitstream Vera Sans" id="text4311" x="5.536" y="17.548" transform="scale(0.972575,1.028199)" xml:space="preserve"><tspan style="font-weight:700;fill:#c00;fill-opacity:1;font-family:Segoe UI" id="tspan4313" x="5.536" y="17.548">2</tspan></text><rect style="fill:#c00;fill-opacity:1;stroke:none;stroke-width:1.31834984;stroke-linecap:round;stroke-linejoin:round;stroke-miterlimit:4;stroke-dasharray:none;stroke-opacity:1" id="rect4347" width="6.551" height="6.551" x="1.129" y="23.096" transform="matrix(0.541645,-0.840607,0.541645,0.840607,0,0)"/><path style="opacity:.51648356;fill:url(#linearGradient2841);fill-opacity:1;fill-rule:evenodd;stroke:none;stroke-width:1.25;stroke-linecap:butt;stroke-linejoin:miter;stroke-miterlimit:4;stroke-dasharray:none;stroke-opacity:1" id="path2759" d="M 4.362696,26.300229 C 15.620528,29.734274 18.748922,20.800498 28.619793,25.61992 L 28.58695,10.191331 C 28.593524,9.3185022 28.183262,8.7376773 26.912635,8.7550874 L 6.076929,8.472999 C 4.880786,8.4708201 4.136699,9.5054553 4.184894,10.284688 L 4.362696,26.300229 z"/><text style="font-size:8.7172718px;font-style:normal;font-variant:normal;font-weight:700;font-stretch:normal;text-align:start;line-height:125%;writing-mode:lr-tb;text-anchor:start;fill:#c00;fill-opacity:1;stroke:none;stroke-width:1.25;stroke-linecap:butt;stroke-linejoin:miter;stroke-miterlimit:4;stroke-dasharray:none;stroke-opacity:1;font-family:Sans" id="text2761" x="-27.508" y="-32.36" transform="matrix(-0.999995,-3.172875e-3,3.172875e-3,-0.999995,0,0)" xml:space="preserve"><tspan style="font-size:8.7172718px;font-style:normal;font-variant:normal;font-weight:700;font-stretch:normal;text-align:start;line-height:125%;writing-mode:lr-tb;text-anchor:start;fill:#c00;fill-opacity:1;stroke-width:1.25;stroke-miterlimit:4;stroke-dasharray:none;font-family:Sans" id="tspan2763" x="-27.508" y="-32.36">2</tspan></text><g style="stroke-width:1.43393588;stroke-miterlimit:4;stroke-dasharray:none" id="g3042" transform="matrix(0.842703,-0.223067,0.223067,0.842703,5.289069,20.8961)"><path style="opacity:.51648356;fill:url(#linearGradient2621);fill-opacity:1;fill-rule:evenodd;stroke:none;stroke-width:1.43393588;stroke-linecap:butt;stroke-linejoin:miter;stroke-miterlimit:4;stroke-dasharray:none;stroke-opacity:1" id="path3055" d="M 11.249051,13.68551 C 22.267512,21.50188 31.322859,13.953532 40.328776,22.789518 L 45.504535,4.7780871 L 44.31062,2.2533867 L 19.506897,-5.5996203 L 16.789787,-4.2944189 L 11.249051,13.68551 z"/></g><rect style="fill:#c00;fill-opacity:1;stroke:none;stroke-width:1.31834984;stroke-linecap:round;stroke-linejoin:round;stroke-miterlimit:4;stroke-dasharray:none;stroke-opacity:1" id="rect4349" width="6.551" height="6.551" x="-6.092" y="30.317" transform="matrix(0.541645,-0.840607,0.541645,0.840607,0,0)"/><path style="fill:url(#linearGradient4264);fill-opacity:1;fill-rule:nonzero;stroke:#888a85;stroke-width:.99999994;stroke-linecap:round;stroke-linejoin:miter;stroke-miterlimit:4;stroke-dashoffset:0;stroke-opacity:1" id="rect7756" d="M 21.473945,11.523765 L 42.45551,11.54358 C 44.13439,11.545166 45.484788,12.807925 45.483308,14.37488 L 45.456507,42.752768 C 45.455027,44.319722 44.102247,45.57993 42.423367,45.578344 L 21.441802,45.558529 C 19.762922,45.556943 18.412524,44.294183 18.414004,42.727229 L 18.440805,14.349341 C 18.442285,12.782386 19.795065,11.522179 21.473945,11.523765 z"/><rect style="fill:none;fill-opacity:1;fill-rule:nonzero;stroke:url(#linearGradient4329);stroke-width:.99999994;stroke-linecap:round;stroke-linejoin:miter;stroke-miterlimit:4;stroke-dasharray:none;stroke-dashoffset:0;stroke-opacity:1" id="rect7758" width="24.976" height="32.014" x="19.521" y="12.504" rx="2.235" ry="1.945" transform="matrix(1,9.12405e-4,-9.75467e-4,1,0,0)"/><path style="fill:#c00;fill-opacity:1;fill-rule:evenodd;stroke:none;stroke-width:1.25;stroke-linecap:butt;stroke-linejoin:miter;stroke-miterlimit:4;stroke-dasharray:none;stroke-opacity:1" id="path920" d="M 31.922844,24.2664 C 34.936884,21.365166 39.057669,24.059191 39.021745,26.818806 C 38.988903,29.341573 36.999609,30.544051 31.997354,35.017005 C 26.78967,30.827364 24.953205,29.859381 24.98987,26.866194 C 25.026872,23.767792 28.569288,21.452588 31.922844,24.2664 z"/><path style="font-size:13.97632694px;font-style:normal;font-weight:400;fill:#c00;fill-opacity:1;stroke:none;stroke-width:1px;stroke-linecap:butt;stroke-linejoin:miter;stroke-opacity:1;font-family:Bitstream Vera Sans" id="text9323" d="M 27.038336,21.059494 L 25.545756,21.059494 L 25.113248,19.502311 L 22.950704,19.502311 L 22.522435,21.059494 L 21.038337,21.059494 L 23.251764,14.059494 L 24.875792,14.059494 L 27.038336,21.059494 M 24.799467,18.291712 L 24.146463,15.938852 C 24.098404,15.763125 24.064482,15.553223 24.044697,15.309145 L 24.010775,15.309145 C 23.996637,15.514172 23.961302,15.717565 23.904768,15.919327 L 23.243283,18.291712 L 24.799467,18.291712"/><path style="opacity:.51648356;fill:url(#linearGradient4255);fill-opacity:1;fill-rule:evenodd;stroke:none;stroke-width:.25pt;stroke-linecap:butt;stroke-linejoin:miter;stroke-opacity:1" id="path3820" d="M 19.298335,30.185887 C 31.057007,33.597671 34.324577,24.721807 44.634585,29.509988 L 44.600281,14.181411 C 44.607147,13.31424 44.178633,12.737181 42.851479,12.754478 L 21.088831,12.474218 C 19.839474,12.472053 19.062284,13.499982 19.112623,14.274163 L 19.298335,30.185887 z"/><path style="font-size:13.97632694px;font-style:normal;font-weight:400;fill:#c00;fill-opacity:1;stroke:none;stroke-width:1px;stroke-linecap:butt;stroke-linejoin:miter;stroke-opacity:1;font-family:Bitstream Vera Sans" id="path4309" d="M 42.886672,36.041867 L 41.394092,36.041867 L 40.961584,37.59905 L 38.79904,37.59905 L 38.370771,36.041867 L 36.886673,36.041867 L 39.1001,43.041867 L 40.724128,43.041867 L 42.886672,36.041867 M 40.647803,38.809649 L 39.994799,41.162509 C 39.94674,41.338236 39.912818,41.548138 39.893033,41.792216 L 39.859111,41.792216 C 39.844973,41.587189 39.809638,41.383796 39.753104,41.182034 L 39.091619,38.809649 L 40.647803,38.809649"/></g></svg>