<svg xmlns="http://www.w3.org/2000/svg" xmlns:svg="http://www.w3.org/2000/svg" id="svg7384" width="16.001" height="16.005" version="1.1"><metadata id="metadata90"/><title id="title9167">Gnome Symbolic Icon Theme</title><g id="layer9" transform="translate(-83.00009,-214.99988)" style="display:inline"><g id="g19133" transform="matrix(1.0000141,0,0,0.9993613,-140.00326,40.121879)"><path id="rect19046" d="m -6,-36 1,0 0,1 -1,0 z" transform="translate(241.0002,217)" style="fill:#bebebe;fill-opacity:1;stroke:none"/><path id="rect19048-0" d="m -7,-35 1,0 0,1 -1,0 z" transform="translate(241.0002,217)" style="fill:#bebebe;fill-opacity:1;stroke:none"/><path id="rect19050" d="m -5,-35 1,0 0,1 -1,0 z" transform="translate(241.0002,217)" style="fill:#bebebe;fill-opacity:1;stroke:none"/><path id="rect19052" d="m -6,-34 1,0 0,1 -1,0 z" transform="translate(241.0002,217)" style="fill:#bebebe;fill-opacity:1;stroke:none"/><path id="rect19054" d="m -7,-33 1,0 0,1 -1,0 z" transform="translate(241.0002,217)" style="fill:#bebebe;fill-opacity:1;stroke:none"/><path id="rect19056" d="m -5,-33 1,0 0,0.152344 L -4.3554688,-32 -5,-32 z" transform="translate(241.0002,217)" style="fill:#bebebe;fill-opacity:1;stroke:none"/><path id="rect19058" d="m -4,-36 1,0 0,0.730469 L -3.1054688,-35 -4,-35 z" transform="translate(241.0002,217)" style="fill:#bebebe;fill-opacity:1;stroke:none"/><path id="rect19060" d="m -6,-32 1,0 0,1 -1,0 z" transform="translate(241.0002,217)" style="fill:#bebebe;fill-opacity:1;stroke:none"/><path id="rect19062" d="m -7,-31 1,0 0,1 -1,0 z" transform="translate(241.0002,217)" style="fill:#bebebe;fill-opacity:1;stroke:none"/><path id="rect19064" d="m -6,-30 0.8164062,0 L -5.59375,-29 -6,-29 z" transform="translate(241.0002,217)" style="fill:#bebebe;fill-opacity:1;stroke:none"/><path id="rect19066" d="m -7,-29 1,0 0,0.960937 L -6.0117188,-28 -7,-28 z" transform="translate(241.0002,217)" style="fill:#bebebe;fill-opacity:1;stroke:none"/><path id="rect19068" d="m -5,-31 0.234375,0 0,0 L -5,-30.441406 z" transform="translate(241.0002,217)" style="fill:#bdbdbd;fill-opacity:.36470588;stroke:none"/><path id="rect19070" d="m -4,-34 0.4726562,0 -0.4140625,1 L -4,-33 z" transform="translate(241.0002,217)" style="fill:#bdbdbd;fill-opacity:.36470588;stroke:none"/><path id="rect19072" d="m -3,-37 0.7211056,0 -0.4203244,1 L -3,-36 z" transform="translate(241.0002,217)" style="fill:#bdbdbd;fill-opacity:.36470588;stroke:none"/><path id="rect19074" d="m -3,-39 0.5429687,0 c 0.21875,0.192708 0.4296875,0.572917 0.4492188,1 L -3,-38 z" transform="translate(241.0002,217)" style="fill:#bebebe;fill-opacity:1;stroke:none"/><path id="rect19076" d="m -4,-39.738281 1,0.417969 0,0.320312 -1,0 z" transform="translate(241.0002,217)" style="fill:#bebebe;fill-opacity:1;stroke:none"/><path id="rect19078" d="m -7,-41 1,0.421875 0,0.578125 -1,0 z" transform="translate(241.0002,217)" style="fill:#bebebe;fill-opacity:1;stroke:none"/><path id="rect19082" d="m -7,-27 c 0.1875,0 0.3867188,0 0.5742188,0 -0.1460316,0.371994 -0.4512679,0.649553 -0.5820313,0.722656 z" transform="translate(241.0002,217)" style="fill:#bdbdbd;fill-opacity:.36470588;stroke:none"/><path id="rect19119" d="m -6,-40 1,0 0,1 -1,0 z" transform="translate(241.0002,217)" style="fill:#bebebe;fill-opacity:1;stroke:none"/><path id="rect19121" d="m -7,-39 1,0 0,1 -1,0 z" transform="translate(241.0002,217)" style="fill:#bebebe;fill-opacity:1;stroke:none"/><path id="rect19123" d="m -5,-39 1,0 0,1 -1,0 z" transform="translate(241.0002,217)" style="fill:#bebebe;fill-opacity:1;stroke:none"/><path id="rect19125" d="m -6,-38 1,0 0,1 -1,0 z" transform="translate(241.0002,217)" style="fill:#bebebe;fill-opacity:1;stroke:none"/><path id="rect19127" d="m -4,-38 1,0 0,1 -1,0 z" transform="translate(241.0002,217)" style="fill:#bebebe;fill-opacity:1;stroke:none"/><path id="rect19129" d="m -5,-37 1,0 0,1 -1,0 z" transform="translate(241.0002,217)" style="fill:#bebebe;fill-opacity:1;stroke:none"/><path id="rect19131" d="m -7,-37 1,0 0,1 -1,0 z" transform="translate(241.0002,217)" style="fill:#bebebe;fill-opacity:1;stroke:none"/></g><path id="path18996" d="m 84.2501,215.01011 c -0.70756,0.15767 -1.25001,0.86404 -1.25001,1.68642 l 0,12.5857 c 0,0.93986 0.73509,1.71766 1.59377,1.71766 l 7.81261,0 c 0.85868,0 1.59377,-0.7778 1.59377,-1.71766 l 0,-12.5857 c 0,-0.93986 -0.73509,-1.68642 -1.59377,-1.68642 l -7.81261,0 c -0.10736,0 -0.24267,-0.0225 -0.34376,0 z m 1.06252,0.99936 0.37501,0 1.31251,2.99808 -0.59375,0 -0.40626,-0.99936 -1.00001,0 -0.37501,0.99936 -0.62501,0 1.31252,-2.99808 z m 0.1875,0.6246 -0.40625,0.99936 0.81251,0 -0.40626,-0.99936 z m 1.25002,3.37284 c 0.96654,0 1.75002,0.74236 1.75002,1.68643 0,-0.94407 0.78349,-1.68643 1.75003,-1.68643 0.96652,0 1.75002,0.74236 1.75002,1.68643 0,0.44866 -0.17924,0.88178 -0.46875,1.18674 -0.0152,0.0158 -0.0156,0.016 -0.0312,0.0312 l -3.00005,3.09177 -2.84379,-2.99808 c -0.1211,-0.0977 -0.19074,-0.21786 -0.28125,-0.34353 -0.20026,-0.27797 -0.375,-0.60242 -0.375,-0.96813 0,-0.94408 0.7835,-1.68643 1.75002,-1.68643 z m 3.25005,6.99553 0.625,0 0.37501,0.99936 1.00001,0 0.40626,-0.99936 0.59376,0 -1.31252,2.99809 -0.37501,0 -1.31251,-2.99809 z m 1.09376,1.37412 0.40626,0.99937 0.40625,-0.99937 -0.81251,0 z" style="fill:#bebebe;fill-opacity:1;stroke:none"/><path id="path19008" d="m 96.00027,217.00883 0.37501,0 -0.37501,-0.15615 -2.59379,-1.09305 0.12501,14.2409 -1.01564,0.95251 c 0.9395,0.15886 1.7235,-0.14618 2.0469,-0.92128 l 4.31256,-10.39961 c 0.3234,-0.7751 -0.0449,-1.62126 -0.78126,-1.90503 l -1.71877,-0.71829 m -0.37501,0 0,-0.15615" style="fill:#bdbdbd;fill-opacity:.36470588;stroke:none;display:inline"/><path id="path19306" d="m 94.00024,230.00053 c 0,0 0.004,-0.12102 0,-1.00717 0,0.6664 -0.0502,0.76696 -0.15625,1.00717 z" style="fill:#bdbdbd;fill-opacity:.36470588;stroke:none"/><path id="path19308" d="m 93.28125,215.40625 0,0.53125 0.03125,13.6875 -1.0625,0.71875 -0.90625,0.59375 1.0625,0.0625 c 0,0 0.238813,0.0108 0.53125,0 0.292437,-0.0108 0.646942,-0.0477 0.9375,-0.15625 0.47406,-0.17704 0.899256,-0.50086 1.09375,-1 L 98.875,219.8125 c 0.348575,-0.89466 -0.05472,-1.88261 -0.875,-2.25 -0.0072,-0.003 0.0073,-0.0281 0,-0.0312 l -0.03125,0 -1.53125,-0.6875 -0.34375,-0.15625 -2.34375,-1.0625 -0.46875,-0.21875 z m 0.6875,1.0625 1.84375,0.84375 0.34375,0.15625 1.53125,0.6875 0.03125,0 c 0.477715,0.19713 0.72851,0.81975 0.5,1.40625 l -3.875,10.03125 C 94.297479,229.7125 94.114712,229.77373 94,229.875 l 0,-0.0312 -0.03125,-13.375 z" style="font-size:medium;font-style:normal;font-variant:normal;font-weight:400;font-stretch:normal;text-indent:0;text-align:start;text-decoration:none;line-height:normal;letter-spacing:normal;word-spacing:normal;text-transform:none;direction:ltr;block-progression:tb;writing-mode:lr-tb;text-anchor:start;baseline-shift:baseline;color:#000;fill:#bebebe;fill-opacity:1;stroke:none;stroke-width:.69098449;marker:none;visibility:visible;display:inline;overflow:visible;enable-background:accumulate;font-family:Sans;-inkscape-font-specification:Sans"/></g></svg>